<mxfile host="app.diagrams.net" modified="2024-04-21T10:58:51.108Z" agent="Mozilla/5.0 (Windows NT 10.0; Win64; x64) AppleWebKit/537.36 (KHTML, like Gecko) Chrome/124.0.0.0 Safari/537.36 Edg/124.0.0.0" etag="-i2TGsa8FI9i1NGT55V8" version="24.2.7" type="github">
  <diagram name="第 1 页" id="La5R-7V5NEukO-BR9fL5">
    <mxGraphModel dx="2407" dy="1536" grid="1" gridSize="10" guides="1" tooltips="1" connect="1" arrows="1" fold="1" page="0" pageScale="1" pageWidth="827" pageHeight="1169" math="0" shadow="0">
      <root>
        <mxCell id="0" />
        <mxCell id="1" parent="0" />
        <mxCell id="puUMt6f__nfRIWuR5iwc-18" style="edgeStyle=none;curved=1;orthogonalLoop=1;jettySize=auto;html=1;exitX=0;exitY=0.5;exitDx=0;exitDy=0;entryX=1;entryY=0;entryDx=0;entryDy=0;fontSize=12;startSize=8;endSize=8;" edge="1" parent="1" source="puUMt6f__nfRIWuR5iwc-6" target="puUMt6f__nfRIWuR5iwc-11">
          <mxGeometry relative="1" as="geometry" />
        </mxCell>
        <mxCell id="puUMt6f__nfRIWuR5iwc-19" style="edgeStyle=none;curved=1;orthogonalLoop=1;jettySize=auto;html=1;exitX=0;exitY=0.5;exitDx=0;exitDy=0;fontSize=12;startSize=8;endSize=8;" edge="1" parent="1" source="puUMt6f__nfRIWuR5iwc-6" target="puUMt6f__nfRIWuR5iwc-13">
          <mxGeometry relative="1" as="geometry" />
        </mxCell>
        <mxCell id="puUMt6f__nfRIWuR5iwc-21" style="edgeStyle=none;curved=1;orthogonalLoop=1;jettySize=auto;html=1;exitX=0;exitY=0.5;exitDx=0;exitDy=0;entryX=1;entryY=1;entryDx=0;entryDy=0;fontSize=12;startSize=8;endSize=8;" edge="1" parent="1" source="puUMt6f__nfRIWuR5iwc-6" target="puUMt6f__nfRIWuR5iwc-15">
          <mxGeometry relative="1" as="geometry" />
        </mxCell>
        <mxCell id="puUMt6f__nfRIWuR5iwc-22" style="edgeStyle=none;curved=1;orthogonalLoop=1;jettySize=auto;html=1;exitX=0;exitY=0.5;exitDx=0;exitDy=0;fontSize=12;startSize=8;endSize=8;" edge="1" parent="1" source="puUMt6f__nfRIWuR5iwc-6" target="puUMt6f__nfRIWuR5iwc-14">
          <mxGeometry relative="1" as="geometry" />
        </mxCell>
        <mxCell id="puUMt6f__nfRIWuR5iwc-25" style="edgeStyle=none;curved=1;orthogonalLoop=1;jettySize=auto;html=1;exitX=0.5;exitY=1;exitDx=0;exitDy=0;entryX=0.5;entryY=0;entryDx=0;entryDy=0;fontSize=12;startSize=8;endSize=8;" edge="1" parent="1" source="puUMt6f__nfRIWuR5iwc-6" target="puUMt6f__nfRIWuR5iwc-24">
          <mxGeometry relative="1" as="geometry" />
        </mxCell>
        <mxCell id="puUMt6f__nfRIWuR5iwc-27" value="N" style="edgeLabel;html=1;align=center;verticalAlign=middle;resizable=0;points=[];fontSize=16;" vertex="1" connectable="0" parent="puUMt6f__nfRIWuR5iwc-25">
          <mxGeometry x="-0.1043" y="2" relative="1" as="geometry">
            <mxPoint as="offset" />
          </mxGeometry>
        </mxCell>
        <mxCell id="puUMt6f__nfRIWuR5iwc-36" style="edgeStyle=none;curved=1;orthogonalLoop=1;jettySize=auto;html=1;exitX=0.5;exitY=1;exitDx=0;exitDy=0;entryX=0.5;entryY=0;entryDx=0;entryDy=0;fontSize=12;startSize=8;endSize=8;" edge="1" parent="1" source="puUMt6f__nfRIWuR5iwc-6" target="puUMt6f__nfRIWuR5iwc-35">
          <mxGeometry relative="1" as="geometry" />
        </mxCell>
        <mxCell id="puUMt6f__nfRIWuR5iwc-41" value="N" style="edgeLabel;html=1;align=center;verticalAlign=middle;resizable=0;points=[];fontSize=16;" vertex="1" connectable="0" parent="puUMt6f__nfRIWuR5iwc-36">
          <mxGeometry x="-0.2069" y="-1" relative="1" as="geometry">
            <mxPoint x="1" as="offset" />
          </mxGeometry>
        </mxCell>
        <mxCell id="puUMt6f__nfRIWuR5iwc-109" style="edgeStyle=none;curved=1;orthogonalLoop=1;jettySize=auto;html=1;exitX=0.5;exitY=1;exitDx=0;exitDy=0;entryX=0.5;entryY=0;entryDx=0;entryDy=0;fontSize=12;startSize=8;endSize=8;" edge="1" parent="1" source="puUMt6f__nfRIWuR5iwc-6" target="puUMt6f__nfRIWuR5iwc-108">
          <mxGeometry relative="1" as="geometry" />
        </mxCell>
        <mxCell id="puUMt6f__nfRIWuR5iwc-112" value="N" style="edgeLabel;html=1;align=center;verticalAlign=middle;resizable=0;points=[];fontSize=16;" vertex="1" connectable="0" parent="puUMt6f__nfRIWuR5iwc-109">
          <mxGeometry x="-0.0244" y="4" relative="1" as="geometry">
            <mxPoint as="offset" />
          </mxGeometry>
        </mxCell>
        <mxCell id="puUMt6f__nfRIWuR5iwc-6" value="商品" style="rounded=0;whiteSpace=wrap;html=1;fontSize=20;" vertex="1" parent="1">
          <mxGeometry x="120" y="190" width="120" height="60" as="geometry" />
        </mxCell>
        <mxCell id="puUMt6f__nfRIWuR5iwc-49" style="edgeStyle=none;curved=1;orthogonalLoop=1;jettySize=auto;html=1;exitX=0.5;exitY=1;exitDx=0;exitDy=0;entryX=0.5;entryY=0;entryDx=0;entryDy=0;fontSize=12;startSize=8;endSize=8;" edge="1" parent="1" source="puUMt6f__nfRIWuR5iwc-7" target="puUMt6f__nfRIWuR5iwc-48">
          <mxGeometry relative="1" as="geometry" />
        </mxCell>
        <mxCell id="puUMt6f__nfRIWuR5iwc-51" value="N" style="edgeLabel;html=1;align=center;verticalAlign=middle;resizable=0;points=[];fontSize=16;" vertex="1" connectable="0" parent="puUMt6f__nfRIWuR5iwc-49">
          <mxGeometry x="-0.0263" y="1" relative="1" as="geometry">
            <mxPoint x="1" as="offset" />
          </mxGeometry>
        </mxCell>
        <mxCell id="puUMt6f__nfRIWuR5iwc-63" style="edgeStyle=none;curved=1;orthogonalLoop=1;jettySize=auto;html=1;exitX=0.5;exitY=0;exitDx=0;exitDy=0;fontSize=12;startSize=8;endSize=8;" edge="1" parent="1" source="puUMt6f__nfRIWuR5iwc-7" target="puUMt6f__nfRIWuR5iwc-54">
          <mxGeometry relative="1" as="geometry" />
        </mxCell>
        <mxCell id="puUMt6f__nfRIWuR5iwc-64" style="edgeStyle=none;curved=1;orthogonalLoop=1;jettySize=auto;html=1;exitX=0.5;exitY=0;exitDx=0;exitDy=0;entryX=0.5;entryY=1;entryDx=0;entryDy=0;fontSize=12;startSize=8;endSize=8;" edge="1" parent="1" source="puUMt6f__nfRIWuR5iwc-7" target="puUMt6f__nfRIWuR5iwc-56">
          <mxGeometry relative="1" as="geometry" />
        </mxCell>
        <mxCell id="puUMt6f__nfRIWuR5iwc-66" style="edgeStyle=none;curved=1;orthogonalLoop=1;jettySize=auto;html=1;exitX=0.5;exitY=0;exitDx=0;exitDy=0;fontSize=12;startSize=8;endSize=8;" edge="1" parent="1" source="puUMt6f__nfRIWuR5iwc-7" target="puUMt6f__nfRIWuR5iwc-57">
          <mxGeometry relative="1" as="geometry" />
        </mxCell>
        <mxCell id="puUMt6f__nfRIWuR5iwc-68" style="edgeStyle=none;curved=1;orthogonalLoop=1;jettySize=auto;html=1;exitX=0;exitY=0.5;exitDx=0;exitDy=0;entryX=1;entryY=0.5;entryDx=0;entryDy=0;fontSize=12;startSize=8;endSize=8;" edge="1" parent="1" source="puUMt6f__nfRIWuR5iwc-7" target="puUMt6f__nfRIWuR5iwc-67">
          <mxGeometry relative="1" as="geometry" />
        </mxCell>
        <mxCell id="puUMt6f__nfRIWuR5iwc-70" value="1" style="edgeLabel;html=1;align=center;verticalAlign=middle;resizable=0;points=[];fontSize=16;" vertex="1" connectable="0" parent="puUMt6f__nfRIWuR5iwc-68">
          <mxGeometry x="-0.0771" y="-3" relative="1" as="geometry">
            <mxPoint as="offset" />
          </mxGeometry>
        </mxCell>
        <mxCell id="puUMt6f__nfRIWuR5iwc-82" style="edgeStyle=none;curved=1;orthogonalLoop=1;jettySize=auto;html=1;exitX=1;exitY=0.5;exitDx=0;exitDy=0;fontSize=12;startSize=8;endSize=8;entryX=0;entryY=0.5;entryDx=0;entryDy=0;" edge="1" parent="1" source="puUMt6f__nfRIWuR5iwc-7" target="puUMt6f__nfRIWuR5iwc-81">
          <mxGeometry relative="1" as="geometry">
            <mxPoint x="515" y="70" as="targetPoint" />
          </mxGeometry>
        </mxCell>
        <mxCell id="puUMt6f__nfRIWuR5iwc-84" value="1" style="edgeLabel;html=1;align=center;verticalAlign=middle;resizable=0;points=[];fontSize=16;" vertex="1" connectable="0" parent="puUMt6f__nfRIWuR5iwc-82">
          <mxGeometry x="-0.1128" y="-2" relative="1" as="geometry">
            <mxPoint as="offset" />
          </mxGeometry>
        </mxCell>
        <mxCell id="puUMt6f__nfRIWuR5iwc-154" style="edgeStyle=none;curved=1;orthogonalLoop=1;jettySize=auto;html=1;exitX=1;exitY=0.5;exitDx=0;exitDy=0;entryX=0;entryY=0.5;entryDx=0;entryDy=0;fontSize=12;startSize=8;endSize=8;" edge="1" parent="1" source="puUMt6f__nfRIWuR5iwc-7" target="puUMt6f__nfRIWuR5iwc-152">
          <mxGeometry relative="1" as="geometry" />
        </mxCell>
        <mxCell id="puUMt6f__nfRIWuR5iwc-158" value="1" style="edgeLabel;html=1;align=center;verticalAlign=middle;resizable=0;points=[];fontSize=16;" vertex="1" connectable="0" parent="puUMt6f__nfRIWuR5iwc-154">
          <mxGeometry x="-0.0444" y="4" relative="1" as="geometry">
            <mxPoint as="offset" />
          </mxGeometry>
        </mxCell>
        <mxCell id="puUMt6f__nfRIWuR5iwc-7" value="用户" style="rounded=0;whiteSpace=wrap;html=1;fontSize=20;" vertex="1" parent="1">
          <mxGeometry x="280" y="-100" width="120" height="60" as="geometry" />
        </mxCell>
        <mxCell id="puUMt6f__nfRIWuR5iwc-125" style="edgeStyle=none;curved=1;orthogonalLoop=1;jettySize=auto;html=1;exitX=0;exitY=0.5;exitDx=0;exitDy=0;entryX=1;entryY=0.5;entryDx=0;entryDy=0;fontSize=12;startSize=8;endSize=8;" edge="1" parent="1" source="puUMt6f__nfRIWuR5iwc-8" target="puUMt6f__nfRIWuR5iwc-123">
          <mxGeometry relative="1" as="geometry" />
        </mxCell>
        <mxCell id="puUMt6f__nfRIWuR5iwc-126" value="N" style="edgeLabel;html=1;align=center;verticalAlign=middle;resizable=0;points=[];fontSize=16;" vertex="1" connectable="0" parent="puUMt6f__nfRIWuR5iwc-125">
          <mxGeometry x="0.1802" y="-4" relative="1" as="geometry">
            <mxPoint as="offset" />
          </mxGeometry>
        </mxCell>
        <mxCell id="puUMt6f__nfRIWuR5iwc-134" style="edgeStyle=none;curved=1;orthogonalLoop=1;jettySize=auto;html=1;exitX=0.5;exitY=0;exitDx=0;exitDy=0;fontSize=12;startSize=8;endSize=8;" edge="1" parent="1" source="puUMt6f__nfRIWuR5iwc-8" target="puUMt6f__nfRIWuR5iwc-128">
          <mxGeometry relative="1" as="geometry" />
        </mxCell>
        <mxCell id="puUMt6f__nfRIWuR5iwc-135" value="N" style="edgeLabel;html=1;align=center;verticalAlign=middle;resizable=0;points=[];fontSize=16;" vertex="1" connectable="0" parent="puUMt6f__nfRIWuR5iwc-134">
          <mxGeometry x="0.0066" y="2" relative="1" as="geometry">
            <mxPoint y="-1" as="offset" />
          </mxGeometry>
        </mxCell>
        <mxCell id="puUMt6f__nfRIWuR5iwc-136" style="edgeStyle=none;curved=1;orthogonalLoop=1;jettySize=auto;html=1;exitX=0;exitY=0;exitDx=0;exitDy=0;fontSize=12;startSize=8;endSize=8;" edge="1" parent="1" source="puUMt6f__nfRIWuR5iwc-8" target="puUMt6f__nfRIWuR5iwc-133">
          <mxGeometry relative="1" as="geometry" />
        </mxCell>
        <mxCell id="puUMt6f__nfRIWuR5iwc-139" value="N" style="edgeLabel;html=1;align=center;verticalAlign=middle;resizable=0;points=[];fontSize=16;" vertex="1" connectable="0" parent="puUMt6f__nfRIWuR5iwc-136">
          <mxGeometry x="0.0358" y="-2" relative="1" as="geometry">
            <mxPoint as="offset" />
          </mxGeometry>
        </mxCell>
        <mxCell id="puUMt6f__nfRIWuR5iwc-148" style="edgeStyle=none;curved=1;orthogonalLoop=1;jettySize=auto;html=1;exitX=0.5;exitY=1;exitDx=0;exitDy=0;entryX=0.5;entryY=0;entryDx=0;entryDy=0;fontSize=12;startSize=8;endSize=8;" edge="1" parent="1" source="puUMt6f__nfRIWuR5iwc-8" target="puUMt6f__nfRIWuR5iwc-141">
          <mxGeometry relative="1" as="geometry" />
        </mxCell>
        <mxCell id="puUMt6f__nfRIWuR5iwc-150" style="edgeStyle=none;curved=1;orthogonalLoop=1;jettySize=auto;html=1;exitX=0.5;exitY=1;exitDx=0;exitDy=0;entryX=0;entryY=0;entryDx=0;entryDy=0;fontSize=12;startSize=8;endSize=8;" edge="1" parent="1" source="puUMt6f__nfRIWuR5iwc-8" target="puUMt6f__nfRIWuR5iwc-142">
          <mxGeometry relative="1" as="geometry" />
        </mxCell>
        <mxCell id="puUMt6f__nfRIWuR5iwc-151" style="edgeStyle=none;curved=1;orthogonalLoop=1;jettySize=auto;html=1;exitX=0.5;exitY=1;exitDx=0;exitDy=0;entryX=0;entryY=0.5;entryDx=0;entryDy=0;fontSize=12;startSize=8;endSize=8;" edge="1" parent="1" source="puUMt6f__nfRIWuR5iwc-8" target="puUMt6f__nfRIWuR5iwc-143">
          <mxGeometry relative="1" as="geometry" />
        </mxCell>
        <mxCell id="puUMt6f__nfRIWuR5iwc-8" value="管理员" style="rounded=0;whiteSpace=wrap;html=1;fontSize=20;" vertex="1" parent="1">
          <mxGeometry x="580" y="250" width="120" height="60" as="geometry" />
        </mxCell>
        <mxCell id="puUMt6f__nfRIWuR5iwc-76" style="edgeStyle=none;curved=1;orthogonalLoop=1;jettySize=auto;html=1;exitX=0.5;exitY=0;exitDx=0;exitDy=0;fontSize=12;startSize=8;endSize=8;" edge="1" parent="1" source="puUMt6f__nfRIWuR5iwc-9" target="puUMt6f__nfRIWuR5iwc-72">
          <mxGeometry relative="1" as="geometry" />
        </mxCell>
        <mxCell id="puUMt6f__nfRIWuR5iwc-77" style="edgeStyle=none;curved=1;orthogonalLoop=1;jettySize=auto;html=1;exitX=0.5;exitY=0;exitDx=0;exitDy=0;entryX=0.5;entryY=1;entryDx=0;entryDy=0;fontSize=12;startSize=8;endSize=8;" edge="1" parent="1" source="puUMt6f__nfRIWuR5iwc-9" target="puUMt6f__nfRIWuR5iwc-73">
          <mxGeometry relative="1" as="geometry" />
        </mxCell>
        <mxCell id="puUMt6f__nfRIWuR5iwc-9" value="购物车" style="rounded=0;whiteSpace=wrap;html=1;fontSize=20;" vertex="1" parent="1">
          <mxGeometry x="-90" y="-100" width="120" height="60" as="geometry" />
        </mxCell>
        <mxCell id="puUMt6f__nfRIWuR5iwc-11" value="ID" style="ellipse;whiteSpace=wrap;html=1;fontSize=18;" vertex="1" parent="1">
          <mxGeometry x="-60" y="290" width="90" height="50" as="geometry" />
        </mxCell>
        <mxCell id="puUMt6f__nfRIWuR5iwc-12" value="..." style="ellipse;whiteSpace=wrap;html=1;fontSize=18;" vertex="1" parent="1">
          <mxGeometry x="-80" y="150" width="90" height="50" as="geometry" />
        </mxCell>
        <mxCell id="puUMt6f__nfRIWuR5iwc-13" value="名称" style="ellipse;whiteSpace=wrap;html=1;fontSize=18;" vertex="1" parent="1">
          <mxGeometry x="-90" y="220" width="90" height="50" as="geometry" />
        </mxCell>
        <mxCell id="puUMt6f__nfRIWuR5iwc-14" value="价格" style="ellipse;whiteSpace=wrap;html=1;fontSize=18;" vertex="1" parent="1">
          <mxGeometry x="-30" y="20" width="90" height="50" as="geometry" />
        </mxCell>
        <mxCell id="puUMt6f__nfRIWuR5iwc-15" value="库存" style="ellipse;whiteSpace=wrap;html=1;fontSize=18;" vertex="1" parent="1">
          <mxGeometry x="-60" y="90" width="90" height="50" as="geometry" />
        </mxCell>
        <mxCell id="puUMt6f__nfRIWuR5iwc-20" style="edgeStyle=none;curved=1;orthogonalLoop=1;jettySize=auto;html=1;exitX=0;exitY=0.5;exitDx=0;exitDy=0;entryX=0.97;entryY=0.66;entryDx=0;entryDy=0;entryPerimeter=0;fontSize=12;startSize=8;endSize=8;" edge="1" parent="1" source="puUMt6f__nfRIWuR5iwc-6" target="puUMt6f__nfRIWuR5iwc-12">
          <mxGeometry relative="1" as="geometry" />
        </mxCell>
        <mxCell id="puUMt6f__nfRIWuR5iwc-33" style="edgeStyle=none;curved=1;orthogonalLoop=1;jettySize=auto;html=1;exitX=0.5;exitY=1;exitDx=0;exitDy=0;entryX=0.5;entryY=0;entryDx=0;entryDy=0;fontSize=12;startSize=8;endSize=8;" edge="1" parent="1" source="puUMt6f__nfRIWuR5iwc-23" target="puUMt6f__nfRIWuR5iwc-30">
          <mxGeometry relative="1" as="geometry" />
        </mxCell>
        <mxCell id="puUMt6f__nfRIWuR5iwc-34" style="edgeStyle=none;curved=1;orthogonalLoop=1;jettySize=auto;html=1;exitX=0.5;exitY=1;exitDx=0;exitDy=0;fontSize=12;startSize=8;endSize=8;" edge="1" parent="1" source="puUMt6f__nfRIWuR5iwc-23" target="puUMt6f__nfRIWuR5iwc-29">
          <mxGeometry relative="1" as="geometry" />
        </mxCell>
        <mxCell id="puUMt6f__nfRIWuR5iwc-23" value="商品分类" style="rounded=0;whiteSpace=wrap;html=1;fontSize=20;" vertex="1" parent="1">
          <mxGeometry x="-45" y="440" width="120" height="60" as="geometry" />
        </mxCell>
        <mxCell id="puUMt6f__nfRIWuR5iwc-26" style="edgeStyle=none;curved=1;orthogonalLoop=1;jettySize=auto;html=1;exitX=0.5;exitY=1;exitDx=0;exitDy=0;entryX=0.5;entryY=0;entryDx=0;entryDy=0;fontSize=12;startSize=8;endSize=8;" edge="1" parent="1" source="puUMt6f__nfRIWuR5iwc-24" target="puUMt6f__nfRIWuR5iwc-23">
          <mxGeometry relative="1" as="geometry" />
        </mxCell>
        <mxCell id="puUMt6f__nfRIWuR5iwc-28" value="M" style="edgeLabel;html=1;align=center;verticalAlign=middle;resizable=0;points=[];fontSize=16;" vertex="1" connectable="0" parent="puUMt6f__nfRIWuR5iwc-26">
          <mxGeometry x="-0.1654" relative="1" as="geometry">
            <mxPoint as="offset" />
          </mxGeometry>
        </mxCell>
        <mxCell id="puUMt6f__nfRIWuR5iwc-24" value="属于" style="rhombus;whiteSpace=wrap;html=1;fontSize=18;rotation=0;" vertex="1" parent="1">
          <mxGeometry x="40" y="330" width="90" height="60" as="geometry" />
        </mxCell>
        <mxCell id="puUMt6f__nfRIWuR5iwc-29" value="分类图标" style="ellipse;whiteSpace=wrap;html=1;fontSize=18;" vertex="1" parent="1">
          <mxGeometry x="10" y="630" width="90" height="50" as="geometry" />
        </mxCell>
        <mxCell id="puUMt6f__nfRIWuR5iwc-30" value="分类描述" style="ellipse;whiteSpace=wrap;html=1;fontSize=18;" vertex="1" parent="1">
          <mxGeometry x="-60" y="680" width="90" height="50" as="geometry" />
        </mxCell>
        <mxCell id="puUMt6f__nfRIWuR5iwc-31" value="分类名称" style="ellipse;whiteSpace=wrap;html=1;fontSize=18;" vertex="1" parent="1">
          <mxGeometry x="-135" y="630" width="90" height="50" as="geometry" />
        </mxCell>
        <mxCell id="puUMt6f__nfRIWuR5iwc-32" style="edgeStyle=none;curved=1;orthogonalLoop=1;jettySize=auto;html=1;exitX=0.5;exitY=1;exitDx=0;exitDy=0;entryX=0.6;entryY=-0.057;entryDx=0;entryDy=0;entryPerimeter=0;fontSize=12;startSize=8;endSize=8;" edge="1" parent="1" source="puUMt6f__nfRIWuR5iwc-23" target="puUMt6f__nfRIWuR5iwc-31">
          <mxGeometry relative="1" as="geometry" />
        </mxCell>
        <mxCell id="puUMt6f__nfRIWuR5iwc-39" style="edgeStyle=none;curved=1;orthogonalLoop=1;jettySize=auto;html=1;exitX=0.5;exitY=1;exitDx=0;exitDy=0;entryX=0.5;entryY=0;entryDx=0;entryDy=0;fontSize=12;startSize=8;endSize=8;" edge="1" parent="1" source="puUMt6f__nfRIWuR5iwc-35" target="puUMt6f__nfRIWuR5iwc-38">
          <mxGeometry relative="1" as="geometry" />
        </mxCell>
        <mxCell id="puUMt6f__nfRIWuR5iwc-40" value="1" style="edgeLabel;html=1;align=center;verticalAlign=middle;resizable=0;points=[];fontSize=16;" vertex="1" connectable="0" parent="puUMt6f__nfRIWuR5iwc-39">
          <mxGeometry x="-0.2743" relative="1" as="geometry">
            <mxPoint as="offset" />
          </mxGeometry>
        </mxCell>
        <mxCell id="puUMt6f__nfRIWuR5iwc-35" value="具有" style="rhombus;whiteSpace=wrap;html=1;fontSize=18;" vertex="1" parent="1">
          <mxGeometry x="160" y="330" width="90" height="60" as="geometry" />
        </mxCell>
        <mxCell id="puUMt6f__nfRIWuR5iwc-45" style="edgeStyle=none;curved=1;orthogonalLoop=1;jettySize=auto;html=1;exitX=0.5;exitY=1;exitDx=0;exitDy=0;entryX=0.5;entryY=0;entryDx=0;entryDy=0;fontSize=12;startSize=8;endSize=8;" edge="1" parent="1" source="puUMt6f__nfRIWuR5iwc-38" target="puUMt6f__nfRIWuR5iwc-42">
          <mxGeometry relative="1" as="geometry" />
        </mxCell>
        <mxCell id="puUMt6f__nfRIWuR5iwc-46" style="edgeStyle=none;curved=1;orthogonalLoop=1;jettySize=auto;html=1;exitX=0.5;exitY=1;exitDx=0;exitDy=0;fontSize=12;startSize=8;endSize=8;" edge="1" parent="1" source="puUMt6f__nfRIWuR5iwc-38" target="puUMt6f__nfRIWuR5iwc-43">
          <mxGeometry relative="1" as="geometry" />
        </mxCell>
        <mxCell id="puUMt6f__nfRIWuR5iwc-47" style="edgeStyle=none;curved=1;orthogonalLoop=1;jettySize=auto;html=1;entryX=0.5;entryY=0;entryDx=0;entryDy=0;fontSize=12;startSize=8;endSize=8;" edge="1" parent="1" source="puUMt6f__nfRIWuR5iwc-38" target="puUMt6f__nfRIWuR5iwc-44">
          <mxGeometry relative="1" as="geometry" />
        </mxCell>
        <mxCell id="puUMt6f__nfRIWuR5iwc-38" value="品牌" style="rounded=0;whiteSpace=wrap;html=1;fontSize=20;" vertex="1" parent="1">
          <mxGeometry x="145" y="440" width="120" height="60" as="geometry" />
        </mxCell>
        <mxCell id="puUMt6f__nfRIWuR5iwc-42" value="品牌名" style="ellipse;whiteSpace=wrap;html=1;fontSize=18;" vertex="1" parent="1">
          <mxGeometry x="100" y="590" width="90" height="50" as="geometry" />
        </mxCell>
        <mxCell id="puUMt6f__nfRIWuR5iwc-43" value="品牌介绍" style="ellipse;whiteSpace=wrap;html=1;fontSize=18;" vertex="1" parent="1">
          <mxGeometry x="160" y="650" width="90" height="50" as="geometry" />
        </mxCell>
        <mxCell id="puUMt6f__nfRIWuR5iwc-44" value="品牌图片" style="ellipse;whiteSpace=wrap;html=1;fontSize=18;" vertex="1" parent="1">
          <mxGeometry x="240" y="610" width="90" height="50" as="geometry" />
        </mxCell>
        <mxCell id="puUMt6f__nfRIWuR5iwc-50" style="edgeStyle=none;curved=1;orthogonalLoop=1;jettySize=auto;html=1;exitX=0.5;exitY=1;exitDx=0;exitDy=0;entryX=0.5;entryY=0;entryDx=0;entryDy=0;fontSize=12;startSize=8;endSize=8;" edge="1" parent="1" source="puUMt6f__nfRIWuR5iwc-48" target="puUMt6f__nfRIWuR5iwc-6">
          <mxGeometry relative="1" as="geometry" />
        </mxCell>
        <mxCell id="puUMt6f__nfRIWuR5iwc-52" value="M" style="edgeLabel;html=1;align=center;verticalAlign=middle;resizable=0;points=[];fontSize=16;" vertex="1" connectable="0" parent="puUMt6f__nfRIWuR5iwc-50">
          <mxGeometry x="-0.2692" y="-2" relative="1" as="geometry">
            <mxPoint as="offset" />
          </mxGeometry>
        </mxCell>
        <mxCell id="puUMt6f__nfRIWuR5iwc-48" value="浏览" style="rhombus;whiteSpace=wrap;html=1;fontSize=18;" vertex="1" parent="1">
          <mxGeometry x="135" y="70" width="90" height="60" as="geometry" />
        </mxCell>
        <mxCell id="puUMt6f__nfRIWuR5iwc-53" value="ID" style="ellipse;whiteSpace=wrap;html=1;fontSize=18;" vertex="1" parent="1">
          <mxGeometry x="135" y="-170" width="90" height="50" as="geometry" />
        </mxCell>
        <mxCell id="puUMt6f__nfRIWuR5iwc-54" value="用户名" style="ellipse;whiteSpace=wrap;html=1;fontSize=18;" vertex="1" parent="1">
          <mxGeometry x="205" y="-230" width="90" height="50" as="geometry" />
        </mxCell>
        <mxCell id="puUMt6f__nfRIWuR5iwc-55" value="..." style="ellipse;whiteSpace=wrap;html=1;fontSize=18;" vertex="1" parent="1">
          <mxGeometry x="395" y="-230" width="90" height="50" as="geometry" />
        </mxCell>
        <mxCell id="puUMt6f__nfRIWuR5iwc-56" value="密码" style="ellipse;whiteSpace=wrap;html=1;fontSize=18;" vertex="1" parent="1">
          <mxGeometry x="295" y="-260" width="90" height="50" as="geometry" />
        </mxCell>
        <mxCell id="puUMt6f__nfRIWuR5iwc-57" value="微信&lt;span style=&quot;font-size:12.0pt;font-family:&lt;br/&gt;宋体;mso-bidi-font-family:&amp;quot;Times New Roman&amp;quot;;mso-bidi-theme-font:minor-bidi;&lt;br/&gt;mso-ansi-language:EN-US;mso-fareast-language:ZH-CN;mso-bidi-language:AR-SA&quot; lang=&quot;EN-US&quot;&gt;openid&lt;/span&gt;" style="ellipse;whiteSpace=wrap;html=1;fontSize=18;" vertex="1" parent="1">
          <mxGeometry x="445" y="-170" width="90" height="50" as="geometry" />
        </mxCell>
        <mxCell id="puUMt6f__nfRIWuR5iwc-60" style="edgeStyle=none;curved=1;orthogonalLoop=1;jettySize=auto;html=1;exitX=0.5;exitY=1;exitDx=0;exitDy=0;fontSize=12;startSize=8;endSize=8;" edge="1" parent="1" source="puUMt6f__nfRIWuR5iwc-55" target="puUMt6f__nfRIWuR5iwc-55">
          <mxGeometry relative="1" as="geometry" />
        </mxCell>
        <mxCell id="puUMt6f__nfRIWuR5iwc-62" style="edgeStyle=none;curved=1;orthogonalLoop=1;jettySize=auto;html=1;exitX=0.5;exitY=0;exitDx=0;exitDy=0;entryX=1;entryY=0.8;entryDx=0;entryDy=0;entryPerimeter=0;fontSize=12;startSize=8;endSize=8;" edge="1" parent="1" source="puUMt6f__nfRIWuR5iwc-7" target="puUMt6f__nfRIWuR5iwc-53">
          <mxGeometry relative="1" as="geometry" />
        </mxCell>
        <mxCell id="puUMt6f__nfRIWuR5iwc-65" style="edgeStyle=none;curved=1;orthogonalLoop=1;jettySize=auto;html=1;exitX=0.5;exitY=0;exitDx=0;exitDy=0;entryX=0.387;entryY=1.043;entryDx=0;entryDy=0;entryPerimeter=0;fontSize=12;startSize=8;endSize=8;" edge="1" parent="1" source="puUMt6f__nfRIWuR5iwc-7" target="puUMt6f__nfRIWuR5iwc-55">
          <mxGeometry relative="1" as="geometry" />
        </mxCell>
        <mxCell id="puUMt6f__nfRIWuR5iwc-69" style="edgeStyle=none;curved=1;orthogonalLoop=1;jettySize=auto;html=1;exitX=0;exitY=0.5;exitDx=0;exitDy=0;entryX=1;entryY=0.5;entryDx=0;entryDy=0;fontSize=12;startSize=8;endSize=8;" edge="1" parent="1" source="puUMt6f__nfRIWuR5iwc-67" target="puUMt6f__nfRIWuR5iwc-9">
          <mxGeometry relative="1" as="geometry" />
        </mxCell>
        <mxCell id="puUMt6f__nfRIWuR5iwc-71" value="1" style="edgeLabel;html=1;align=center;verticalAlign=middle;resizable=0;points=[];fontSize=16;" vertex="1" connectable="0" parent="puUMt6f__nfRIWuR5iwc-69">
          <mxGeometry x="-0.0274" relative="1" as="geometry">
            <mxPoint as="offset" />
          </mxGeometry>
        </mxCell>
        <mxCell id="puUMt6f__nfRIWuR5iwc-67" value="拥有" style="rhombus;whiteSpace=wrap;html=1;fontSize=18;" vertex="1" parent="1">
          <mxGeometry x="115" y="-100" width="90" height="60" as="geometry" />
        </mxCell>
        <mxCell id="puUMt6f__nfRIWuR5iwc-72" value="用户ID" style="ellipse;whiteSpace=wrap;html=1;fontSize=18;" vertex="1" parent="1">
          <mxGeometry x="-190" y="-170" width="90" height="50" as="geometry" />
        </mxCell>
        <mxCell id="puUMt6f__nfRIWuR5iwc-73" value="商品ID" style="ellipse;whiteSpace=wrap;html=1;fontSize=18;" vertex="1" parent="1">
          <mxGeometry x="-75" y="-210" width="90" height="50" as="geometry" />
        </mxCell>
        <mxCell id="puUMt6f__nfRIWuR5iwc-74" value="商品数量" style="ellipse;whiteSpace=wrap;html=1;fontSize=18;" vertex="1" parent="1">
          <mxGeometry x="30" y="-190" width="90" height="50" as="geometry" />
        </mxCell>
        <mxCell id="puUMt6f__nfRIWuR5iwc-78" style="edgeStyle=none;curved=1;orthogonalLoop=1;jettySize=auto;html=1;exitX=0.5;exitY=0;exitDx=0;exitDy=0;entryX=0.415;entryY=1.01;entryDx=0;entryDy=0;entryPerimeter=0;fontSize=12;startSize=8;endSize=8;" edge="1" parent="1" source="puUMt6f__nfRIWuR5iwc-9" target="puUMt6f__nfRIWuR5iwc-74">
          <mxGeometry relative="1" as="geometry" />
        </mxCell>
        <mxCell id="puUMt6f__nfRIWuR5iwc-102" style="edgeStyle=none;curved=1;orthogonalLoop=1;jettySize=auto;html=1;exitX=1;exitY=0.5;exitDx=0;exitDy=0;entryX=0;entryY=1;entryDx=0;entryDy=0;fontSize=12;startSize=8;endSize=8;" edge="1" parent="1" source="puUMt6f__nfRIWuR5iwc-79" target="puUMt6f__nfRIWuR5iwc-87">
          <mxGeometry relative="1" as="geometry" />
        </mxCell>
        <mxCell id="puUMt6f__nfRIWuR5iwc-103" style="edgeStyle=none;curved=1;orthogonalLoop=1;jettySize=auto;html=1;exitX=1;exitY=0.5;exitDx=0;exitDy=0;entryX=0;entryY=0.5;entryDx=0;entryDy=0;fontSize=12;startSize=8;endSize=8;" edge="1" parent="1" source="puUMt6f__nfRIWuR5iwc-79" target="puUMt6f__nfRIWuR5iwc-88">
          <mxGeometry relative="1" as="geometry" />
        </mxCell>
        <mxCell id="puUMt6f__nfRIWuR5iwc-104" style="edgeStyle=none;curved=1;orthogonalLoop=1;jettySize=auto;html=1;exitX=1;exitY=0.5;exitDx=0;exitDy=0;entryX=0;entryY=0.5;entryDx=0;entryDy=0;fontSize=12;startSize=8;endSize=8;" edge="1" parent="1" source="puUMt6f__nfRIWuR5iwc-79" target="puUMt6f__nfRIWuR5iwc-89">
          <mxGeometry relative="1" as="geometry" />
        </mxCell>
        <mxCell id="puUMt6f__nfRIWuR5iwc-105" style="edgeStyle=none;curved=1;orthogonalLoop=1;jettySize=auto;html=1;exitX=1;exitY=0.5;exitDx=0;exitDy=0;entryX=0;entryY=0.5;entryDx=0;entryDy=0;fontSize=12;startSize=8;endSize=8;" edge="1" parent="1" source="puUMt6f__nfRIWuR5iwc-79" target="puUMt6f__nfRIWuR5iwc-91">
          <mxGeometry relative="1" as="geometry" />
        </mxCell>
        <mxCell id="puUMt6f__nfRIWuR5iwc-106" style="edgeStyle=none;curved=1;orthogonalLoop=1;jettySize=auto;html=1;exitX=1;exitY=0.5;exitDx=0;exitDy=0;entryX=0;entryY=0;entryDx=0;entryDy=0;fontSize=12;startSize=8;endSize=8;" edge="1" parent="1" source="puUMt6f__nfRIWuR5iwc-79" target="puUMt6f__nfRIWuR5iwc-92">
          <mxGeometry relative="1" as="geometry" />
        </mxCell>
        <mxCell id="puUMt6f__nfRIWuR5iwc-107" style="edgeStyle=none;curved=1;orthogonalLoop=1;jettySize=auto;html=1;exitX=1;exitY=0.5;exitDx=0;exitDy=0;entryX=0.5;entryY=0;entryDx=0;entryDy=0;fontSize=12;startSize=8;endSize=8;" edge="1" parent="1" source="puUMt6f__nfRIWuR5iwc-79" target="puUMt6f__nfRIWuR5iwc-90">
          <mxGeometry relative="1" as="geometry" />
        </mxCell>
        <mxCell id="puUMt6f__nfRIWuR5iwc-79" value="订单" style="rounded=0;whiteSpace=wrap;html=1;fontSize=20;" vertex="1" parent="1">
          <mxGeometry x="790" y="40" width="120" height="60" as="geometry" />
        </mxCell>
        <mxCell id="puUMt6f__nfRIWuR5iwc-83" style="edgeStyle=none;curved=1;orthogonalLoop=1;jettySize=auto;html=1;exitX=1;exitY=1;exitDx=0;exitDy=0;fontSize=12;startSize=8;endSize=8;entryX=0;entryY=0.5;entryDx=0;entryDy=0;" edge="1" parent="1" source="puUMt6f__nfRIWuR5iwc-81" target="puUMt6f__nfRIWuR5iwc-79">
          <mxGeometry relative="1" as="geometry" />
        </mxCell>
        <mxCell id="puUMt6f__nfRIWuR5iwc-85" value="N" style="edgeLabel;html=1;align=center;verticalAlign=middle;resizable=0;points=[];fontSize=16;" vertex="1" connectable="0" parent="puUMt6f__nfRIWuR5iwc-83">
          <mxGeometry x="-0.3711" y="-2" relative="1" as="geometry">
            <mxPoint as="offset" />
          </mxGeometry>
        </mxCell>
        <mxCell id="puUMt6f__nfRIWuR5iwc-81" value="产生" style="rhombus;whiteSpace=wrap;html=1;fontSize=18;" vertex="1" parent="1">
          <mxGeometry x="590" y="-40" width="90" height="60" as="geometry" />
        </mxCell>
        <mxCell id="puUMt6f__nfRIWuR5iwc-87" value="编号" style="ellipse;whiteSpace=wrap;html=1;fontSize=18;" vertex="1" parent="1">
          <mxGeometry x="1010" y="-60" width="90" height="50" as="geometry" />
        </mxCell>
        <mxCell id="puUMt6f__nfRIWuR5iwc-88" value="用户ID" style="ellipse;whiteSpace=wrap;html=1;fontSize=18;" vertex="1" parent="1">
          <mxGeometry x="1050" y="10" width="90" height="50" as="geometry" />
        </mxCell>
        <mxCell id="puUMt6f__nfRIWuR5iwc-89" value="订单状态" style="ellipse;whiteSpace=wrap;html=1;fontSize=18;" vertex="1" parent="1">
          <mxGeometry x="1080" y="70" width="90" height="50" as="geometry" />
        </mxCell>
        <mxCell id="puUMt6f__nfRIWuR5iwc-90" value="总价" style="ellipse;whiteSpace=wrap;html=1;fontSize=18;" vertex="1" parent="1">
          <mxGeometry x="920" y="220" width="90" height="50" as="geometry" />
        </mxCell>
        <mxCell id="puUMt6f__nfRIWuR5iwc-91" value="支付状态" style="ellipse;whiteSpace=wrap;html=1;fontSize=18;" vertex="1" parent="1">
          <mxGeometry x="1060" y="130" width="90" height="50" as="geometry" />
        </mxCell>
        <mxCell id="puUMt6f__nfRIWuR5iwc-92" value="..." style="ellipse;whiteSpace=wrap;html=1;fontSize=18;" vertex="1" parent="1">
          <mxGeometry x="1010" y="190" width="90" height="50" as="geometry" />
        </mxCell>
        <mxCell id="puUMt6f__nfRIWuR5iwc-111" style="edgeStyle=none;curved=1;orthogonalLoop=1;jettySize=auto;html=1;exitX=0.5;exitY=1;exitDx=0;exitDy=0;entryX=0.5;entryY=0;entryDx=0;entryDy=0;fontSize=12;startSize=8;endSize=8;" edge="1" parent="1" source="puUMt6f__nfRIWuR5iwc-108" target="puUMt6f__nfRIWuR5iwc-110">
          <mxGeometry relative="1" as="geometry" />
        </mxCell>
        <mxCell id="puUMt6f__nfRIWuR5iwc-113" value="M" style="edgeLabel;html=1;align=center;verticalAlign=middle;resizable=0;points=[];fontSize=16;" vertex="1" connectable="0" parent="puUMt6f__nfRIWuR5iwc-111">
          <mxGeometry x="-0.2512" y="1" relative="1" as="geometry">
            <mxPoint as="offset" />
          </mxGeometry>
        </mxCell>
        <mxCell id="puUMt6f__nfRIWuR5iwc-108" value="属于" style="rhombus;whiteSpace=wrap;html=1;fontSize=18;" vertex="1" parent="1">
          <mxGeometry x="290" y="330" width="90" height="60" as="geometry" />
        </mxCell>
        <mxCell id="puUMt6f__nfRIWuR5iwc-119" style="edgeStyle=none;curved=1;orthogonalLoop=1;jettySize=auto;html=1;exitX=0.5;exitY=1;exitDx=0;exitDy=0;fontSize=12;startSize=8;endSize=8;" edge="1" parent="1" source="puUMt6f__nfRIWuR5iwc-110" target="puUMt6f__nfRIWuR5iwc-115">
          <mxGeometry relative="1" as="geometry" />
        </mxCell>
        <mxCell id="puUMt6f__nfRIWuR5iwc-120" style="edgeStyle=none;curved=1;orthogonalLoop=1;jettySize=auto;html=1;exitX=0.5;exitY=1;exitDx=0;exitDy=0;entryX=0.5;entryY=0;entryDx=0;entryDy=0;fontSize=12;startSize=8;endSize=8;" edge="1" parent="1" source="puUMt6f__nfRIWuR5iwc-110" target="puUMt6f__nfRIWuR5iwc-116">
          <mxGeometry relative="1" as="geometry" />
        </mxCell>
        <mxCell id="puUMt6f__nfRIWuR5iwc-121" style="edgeStyle=none;curved=1;orthogonalLoop=1;jettySize=auto;html=1;exitX=0.5;exitY=1;exitDx=0;exitDy=0;entryX=0;entryY=0;entryDx=0;entryDy=0;fontSize=12;startSize=8;endSize=8;" edge="1" parent="1" source="puUMt6f__nfRIWuR5iwc-110" target="puUMt6f__nfRIWuR5iwc-117">
          <mxGeometry relative="1" as="geometry" />
        </mxCell>
        <mxCell id="puUMt6f__nfRIWuR5iwc-122" style="edgeStyle=none;curved=1;orthogonalLoop=1;jettySize=auto;html=1;exitX=0.5;exitY=1;exitDx=0;exitDy=0;entryX=0;entryY=0.5;entryDx=0;entryDy=0;fontSize=12;startSize=8;endSize=8;" edge="1" parent="1" source="puUMt6f__nfRIWuR5iwc-110" target="puUMt6f__nfRIWuR5iwc-118">
          <mxGeometry relative="1" as="geometry" />
        </mxCell>
        <mxCell id="puUMt6f__nfRIWuR5iwc-110" value="专题" style="rounded=0;whiteSpace=wrap;html=1;fontSize=20;" vertex="1" parent="1">
          <mxGeometry x="330" y="440" width="120" height="60" as="geometry" />
        </mxCell>
        <mxCell id="puUMt6f__nfRIWuR5iwc-115" value="标题" style="ellipse;whiteSpace=wrap;html=1;fontSize=18;" vertex="1" parent="1">
          <mxGeometry x="330" y="650" width="90" height="50" as="geometry" />
        </mxCell>
        <mxCell id="puUMt6f__nfRIWuR5iwc-116" value="简介" style="ellipse;whiteSpace=wrap;html=1;fontSize=18;" vertex="1" parent="1">
          <mxGeometry x="430" y="670" width="90" height="50" as="geometry" />
        </mxCell>
        <mxCell id="puUMt6f__nfRIWuR5iwc-117" value="内容" style="ellipse;whiteSpace=wrap;html=1;fontSize=18;" vertex="1" parent="1">
          <mxGeometry x="500" y="620" width="90" height="50" as="geometry" />
        </mxCell>
        <mxCell id="puUMt6f__nfRIWuR5iwc-118" value="图标" style="ellipse;whiteSpace=wrap;html=1;fontSize=18;" vertex="1" parent="1">
          <mxGeometry x="530" y="560" width="90" height="50" as="geometry" />
        </mxCell>
        <mxCell id="puUMt6f__nfRIWuR5iwc-124" style="edgeStyle=none;curved=1;orthogonalLoop=1;jettySize=auto;html=1;exitX=0;exitY=0.5;exitDx=0;exitDy=0;entryX=1;entryY=0.5;entryDx=0;entryDy=0;fontSize=12;startSize=8;endSize=8;" edge="1" parent="1" source="puUMt6f__nfRIWuR5iwc-123" target="puUMt6f__nfRIWuR5iwc-6">
          <mxGeometry relative="1" as="geometry" />
        </mxCell>
        <mxCell id="puUMt6f__nfRIWuR5iwc-127" value="M" style="edgeLabel;html=1;align=center;verticalAlign=middle;resizable=0;points=[];fontSize=16;" vertex="1" connectable="0" parent="puUMt6f__nfRIWuR5iwc-124">
          <mxGeometry x="-0.0479" y="-1" relative="1" as="geometry">
            <mxPoint as="offset" />
          </mxGeometry>
        </mxCell>
        <mxCell id="puUMt6f__nfRIWuR5iwc-123" value="管理" style="rhombus;whiteSpace=wrap;html=1;fontSize=18;" vertex="1" parent="1">
          <mxGeometry x="340" y="190" width="90" height="60" as="geometry" />
        </mxCell>
        <mxCell id="puUMt6f__nfRIWuR5iwc-129" style="edgeStyle=none;curved=1;orthogonalLoop=1;jettySize=auto;html=1;entryX=0.5;entryY=1;entryDx=0;entryDy=0;fontSize=12;startSize=8;endSize=8;" edge="1" parent="1" source="puUMt6f__nfRIWuR5iwc-128" target="puUMt6f__nfRIWuR5iwc-79">
          <mxGeometry relative="1" as="geometry" />
        </mxCell>
        <mxCell id="puUMt6f__nfRIWuR5iwc-131" value="M" style="edgeLabel;html=1;align=center;verticalAlign=middle;resizable=0;points=[];fontSize=16;" vertex="1" connectable="0" parent="puUMt6f__nfRIWuR5iwc-129">
          <mxGeometry x="-0.0699" relative="1" as="geometry">
            <mxPoint y="-1" as="offset" />
          </mxGeometry>
        </mxCell>
        <mxCell id="puUMt6f__nfRIWuR5iwc-128" value="管理" style="rhombus;whiteSpace=wrap;html=1;fontSize=18;" vertex="1" parent="1">
          <mxGeometry x="710" y="145" width="90" height="60" as="geometry" />
        </mxCell>
        <mxCell id="puUMt6f__nfRIWuR5iwc-138" style="edgeStyle=none;curved=1;orthogonalLoop=1;jettySize=auto;html=1;exitX=0;exitY=0;exitDx=0;exitDy=0;entryX=0.5;entryY=1;entryDx=0;entryDy=0;fontSize=12;startSize=8;endSize=8;" edge="1" parent="1" source="puUMt6f__nfRIWuR5iwc-133" target="puUMt6f__nfRIWuR5iwc-7">
          <mxGeometry relative="1" as="geometry" />
        </mxCell>
        <mxCell id="puUMt6f__nfRIWuR5iwc-140" value="M" style="edgeLabel;html=1;align=center;verticalAlign=middle;resizable=0;points=[];fontSize=16;" vertex="1" connectable="0" parent="puUMt6f__nfRIWuR5iwc-138">
          <mxGeometry x="0.07" y="-2" relative="1" as="geometry">
            <mxPoint as="offset" />
          </mxGeometry>
        </mxCell>
        <mxCell id="puUMt6f__nfRIWuR5iwc-133" value="管理" style="rhombus;whiteSpace=wrap;html=1;fontSize=18;" vertex="1" parent="1">
          <mxGeometry x="400" y="45" width="90" height="60" as="geometry" />
        </mxCell>
        <mxCell id="puUMt6f__nfRIWuR5iwc-141" value="ID" style="ellipse;whiteSpace=wrap;html=1;fontSize=18;" vertex="1" parent="1">
          <mxGeometry x="560" y="450" width="90" height="50" as="geometry" />
        </mxCell>
        <mxCell id="puUMt6f__nfRIWuR5iwc-142" value="用户名" style="ellipse;whiteSpace=wrap;html=1;fontSize=18;" vertex="1" parent="1">
          <mxGeometry x="770" y="395" width="90" height="50" as="geometry" />
        </mxCell>
        <mxCell id="puUMt6f__nfRIWuR5iwc-143" value="登录时间" style="ellipse;whiteSpace=wrap;html=1;fontSize=18;" vertex="1" parent="1">
          <mxGeometry x="810" y="320" width="90" height="50" as="geometry" />
        </mxCell>
        <mxCell id="puUMt6f__nfRIWuR5iwc-145" value="密码" style="ellipse;whiteSpace=wrap;html=1;fontSize=18;" vertex="1" parent="1">
          <mxGeometry x="680" y="460" width="90" height="50" as="geometry" />
        </mxCell>
        <mxCell id="puUMt6f__nfRIWuR5iwc-149" style="edgeStyle=none;curved=1;orthogonalLoop=1;jettySize=auto;html=1;exitX=0.5;exitY=1;exitDx=0;exitDy=0;entryX=0.256;entryY=-0.045;entryDx=0;entryDy=0;entryPerimeter=0;fontSize=12;startSize=8;endSize=8;" edge="1" parent="1" source="puUMt6f__nfRIWuR5iwc-8" target="puUMt6f__nfRIWuR5iwc-145">
          <mxGeometry relative="1" as="geometry" />
        </mxCell>
        <mxCell id="puUMt6f__nfRIWuR5iwc-157" style="edgeStyle=none;curved=1;orthogonalLoop=1;jettySize=auto;html=1;exitX=1;exitY=0.5;exitDx=0;exitDy=0;entryX=0;entryY=0.5;entryDx=0;entryDy=0;fontSize=12;startSize=8;endSize=8;" edge="1" parent="1" source="puUMt6f__nfRIWuR5iwc-152" target="puUMt6f__nfRIWuR5iwc-155">
          <mxGeometry relative="1" as="geometry" />
        </mxCell>
        <mxCell id="puUMt6f__nfRIWuR5iwc-159" value="N" style="edgeLabel;html=1;align=center;verticalAlign=middle;resizable=0;points=[];fontSize=16;" vertex="1" connectable="0" parent="puUMt6f__nfRIWuR5iwc-157">
          <mxGeometry x="-0.1429" y="2" relative="1" as="geometry">
            <mxPoint x="-1" as="offset" />
          </mxGeometry>
        </mxCell>
        <mxCell id="puUMt6f__nfRIWuR5iwc-152" value="拥有" style="rhombus;whiteSpace=wrap;html=1;fontSize=18;" vertex="1" parent="1">
          <mxGeometry x="590" y="-130" width="90" height="60" as="geometry" />
        </mxCell>
        <mxCell id="puUMt6f__nfRIWuR5iwc-153" style="edgeStyle=none;curved=1;orthogonalLoop=1;jettySize=auto;html=1;exitX=1;exitY=0;exitDx=0;exitDy=0;fontSize=12;startSize=8;endSize=8;" edge="1" parent="1" source="puUMt6f__nfRIWuR5iwc-152" target="puUMt6f__nfRIWuR5iwc-152">
          <mxGeometry relative="1" as="geometry" />
        </mxCell>
        <mxCell id="puUMt6f__nfRIWuR5iwc-167" style="edgeStyle=none;curved=1;orthogonalLoop=1;jettySize=auto;html=1;exitX=0.5;exitY=0;exitDx=0;exitDy=0;entryX=0.5;entryY=1;entryDx=0;entryDy=0;fontSize=12;startSize=8;endSize=8;" edge="1" parent="1" source="puUMt6f__nfRIWuR5iwc-155" target="puUMt6f__nfRIWuR5iwc-161">
          <mxGeometry relative="1" as="geometry" />
        </mxCell>
        <mxCell id="puUMt6f__nfRIWuR5iwc-169" style="edgeStyle=none;curved=1;orthogonalLoop=1;jettySize=auto;html=1;exitX=0.5;exitY=0;exitDx=0;exitDy=0;entryX=0;entryY=0.5;entryDx=0;entryDy=0;fontSize=12;startSize=8;endSize=8;" edge="1" parent="1" source="puUMt6f__nfRIWuR5iwc-155" target="puUMt6f__nfRIWuR5iwc-164">
          <mxGeometry relative="1" as="geometry" />
        </mxCell>
        <mxCell id="puUMt6f__nfRIWuR5iwc-155" value="收货地址" style="rounded=0;whiteSpace=wrap;html=1;fontSize=20;" vertex="1" parent="1">
          <mxGeometry x="790" y="-130" width="120" height="60" as="geometry" />
        </mxCell>
        <mxCell id="puUMt6f__nfRIWuR5iwc-160" value="用户ID" style="ellipse;whiteSpace=wrap;html=1;fontSize=18;" vertex="1" parent="1">
          <mxGeometry x="700" y="-230" width="90" height="50" as="geometry" />
        </mxCell>
        <mxCell id="puUMt6f__nfRIWuR5iwc-161" value="别名" style="ellipse;whiteSpace=wrap;html=1;fontSize=18;" vertex="1" parent="1">
          <mxGeometry x="800" y="-250" width="90" height="50" as="geometry" />
        </mxCell>
        <mxCell id="puUMt6f__nfRIWuR5iwc-162" value="手机号" style="ellipse;whiteSpace=wrap;html=1;fontSize=18;" vertex="1" parent="1">
          <mxGeometry x="900" y="-240" width="90" height="50" as="geometry" />
        </mxCell>
        <mxCell id="puUMt6f__nfRIWuR5iwc-164" value="地址映射" style="ellipse;whiteSpace=wrap;html=1;fontSize=18;" vertex="1" parent="1">
          <mxGeometry x="970" y="-180" width="90" height="50" as="geometry" />
        </mxCell>
        <mxCell id="puUMt6f__nfRIWuR5iwc-165" style="edgeStyle=none;curved=1;orthogonalLoop=1;jettySize=auto;html=1;exitX=0.5;exitY=0;exitDx=0;exitDy=0;entryX=0.672;entryY=1.042;entryDx=0;entryDy=0;entryPerimeter=0;fontSize=12;startSize=8;endSize=8;" edge="1" parent="1" source="puUMt6f__nfRIWuR5iwc-155" target="puUMt6f__nfRIWuR5iwc-160">
          <mxGeometry relative="1" as="geometry" />
        </mxCell>
        <mxCell id="puUMt6f__nfRIWuR5iwc-168" style="edgeStyle=none;curved=1;orthogonalLoop=1;jettySize=auto;html=1;exitX=0.5;exitY=0;exitDx=0;exitDy=0;entryX=0.336;entryY=0.945;entryDx=0;entryDy=0;entryPerimeter=0;fontSize=12;startSize=8;endSize=8;" edge="1" parent="1" source="puUMt6f__nfRIWuR5iwc-155" target="puUMt6f__nfRIWuR5iwc-162">
          <mxGeometry relative="1" as="geometry" />
        </mxCell>
      </root>
    </mxGraphModel>
  </diagram>
</mxfile>
